<svg width="85" height="70" viewBox="0 0 301 246" fill="none" xmlns="http://www.w3.org/2000/svg">
<path fill-rule="evenodd" clip-rule="evenodd" d="M155.662 1H207.049L155.662 53.1197V1ZM33.2212 107.33L61.7255 148.396L44.1586 166.213L33.2212 145.995V177.306L1 209.987V1H33.2212V75.1088L86.3862 1H128.274L33.2212 107.33ZM76.5553 169.76L56.8758 189.721L80.7826 233.912L104.433 209.924L76.5553 169.76ZM119.389 231.47L106.769 244.27H128.274L119.389 231.47ZM155.662 194.68L241.784 107.33H282.936L155.662 244.27V194.68ZM205.585 107.33L155.662 157.965V89.5259L242.943 1H299.046L183.05 107.33H205.585ZM3.09315 244.27L33.2212 213.713V244.27H3.09315Z" fill="#E6002E"/>
<path d="M207.049 1L207.405 1.35104L208.244 0.5H207.049V1ZM155.662 1V0.5H155.162V1H155.662ZM155.662 53.1197H155.162V54.339L156.018 53.4707L155.662 53.1197ZM61.7255 148.396L62.0816 148.747L62.3728 148.451L62.1363 148.11L61.7255 148.396ZM33.2212 107.33L32.8484 106.997L32.5855 107.291L32.8105 107.615L33.2212 107.33ZM44.1586 166.213L43.7188 166.451L44.0403 167.045L44.5146 166.564L44.1586 166.213ZM33.2212 145.995L33.661 145.758L32.7212 145.995H33.2212ZM33.2212 177.306L33.5773 177.657L33.7212 177.511V177.306H33.2212ZM1 209.987H0.5V211.206L1.35605 210.338L1 209.987ZM1 1V0.5H0.5V1H1ZM33.2212 1H33.7212V0.5H33.2212V1ZM33.2212 75.1088H32.7212V76.6635L33.6275 75.4003L33.2212 75.1088ZM86.3862 1V0.5H86.1296L85.98 0.708546L86.3862 1ZM128.274 1L128.647 1.33323L129.391 0.5H128.274V1ZM56.8758 189.721L56.5197 189.37L56.26 189.633L56.436 189.959L56.8758 189.721ZM76.5553 169.76L76.9661 169.475L76.6224 168.98L76.1993 169.409L76.5553 169.76ZM80.7826 233.912L80.3428 234.15L80.6643 234.744L81.1386 234.263L80.7826 233.912ZM104.433 209.924L104.789 210.275L105.081 209.98L104.844 209.639L104.433 209.924ZM119.389 231.47L119.8 231.185L119.456 230.69L119.033 231.119L119.389 231.47ZM106.769 244.27L106.413 243.919L105.574 244.77H106.769V244.27ZM128.274 244.27V244.77H129.23L128.685 243.985L128.274 244.27ZM241.784 107.33V106.83H241.574L241.428 106.979L241.784 107.33ZM155.662 194.68L155.306 194.329L155.162 194.475V194.68H155.662ZM282.936 107.33L283.302 107.67L284.083 106.83H282.936V107.33ZM155.662 244.27H155.162V245.543L156.028 244.611L155.662 244.27ZM155.662 157.965H155.162V159.184L156.018 158.316L155.662 157.965ZM205.585 107.33L205.941 107.681L206.78 106.83H205.585V107.33ZM155.662 89.5259L155.306 89.1749L155.162 89.3209V89.5259H155.662ZM242.943 1V0.5H242.734L242.587 0.648958L242.943 1ZM299.046 1L299.384 1.36858L300.332 0.5H299.046V1ZM183.05 107.33L182.712 106.961L181.764 107.83H183.05V107.33ZM33.2212 213.713H33.7212V212.493L32.8652 213.361L33.2212 213.713ZM3.09315 244.27L2.7371 243.919L1.89802 244.77H3.09315V244.27ZM33.2212 244.27V244.77H33.7212V244.27H33.2212ZM207.049 0.5H155.662V1.5H207.049V0.5ZM156.018 53.4707L207.405 1.35104L206.693 0.648958L155.306 52.7687L156.018 53.4707ZM155.162 1V53.1197H156.162V1H155.162ZM62.1363 148.11L33.632 107.045L32.8105 107.615L61.3148 148.681L62.1363 148.11ZM44.5146 166.564L62.0816 148.747L61.3695 148.045L43.8025 165.862L44.5146 166.564ZM32.7814 146.233L43.7188 166.451L44.5983 165.975L33.661 145.758L32.7814 146.233ZM33.7212 177.306V145.995H32.7212V177.306H33.7212ZM1.35605 210.338L33.5773 177.657L32.8652 176.955L0.643953 209.636L1.35605 210.338ZM0.5 1V209.987H1.5V1H0.5ZM33.2212 0.5H1V1.5H33.2212V0.5ZM33.7212 75.1088V1H32.7212V75.1088H33.7212ZM85.98 0.708546L32.8149 74.8174L33.6275 75.4003L86.7925 1.29145L85.98 0.708546ZM128.274 0.5H86.3862V1.5H128.274V0.5ZM33.594 107.663L128.647 1.33323L127.901 0.666768L32.8484 106.997L33.594 107.663ZM57.2318 190.072L76.9114 170.112L76.1993 169.409L56.5197 189.37L57.2318 190.072ZM81.2223 233.674L57.3156 189.483L56.436 189.959L80.3428 234.15L81.2223 233.674ZM81.1386 234.263L104.789 210.275L104.077 209.573L80.4265 233.561L81.1386 234.263ZM76.1446 170.046L104.023 210.209L104.844 209.639L76.9661 169.475L76.1446 170.046ZM119.033 231.119L106.413 243.919L107.125 244.621L119.745 231.821L119.033 231.119ZM128.274 243.77H106.769V244.77H128.274V243.77ZM118.978 231.755L127.863 244.555L128.685 243.985L119.8 231.185L118.978 231.755ZM241.428 106.979L155.306 194.329L156.018 195.031L242.14 107.681L241.428 106.979ZM241.784 107.83H282.936V106.83H241.784V107.83ZM282.569 106.99L155.296 243.93L156.028 244.611L283.302 107.67L282.569 106.99ZM156.162 244.27V194.68H155.162V244.27H156.162ZM156.018 158.316L205.941 107.681L205.229 106.979L155.306 157.614L156.018 158.316ZM156.162 157.965V89.5259H155.162V157.965H156.162ZM156.018 89.877L243.299 1.35104L242.587 0.648958L155.306 89.1749L156.018 89.877ZM242.943 1.5H299.046V0.5H242.943V1.5ZM298.708 0.631423L182.712 106.961L183.388 107.699L299.384 1.36858L298.708 0.631423ZM183.05 107.83H205.585V106.83H183.05V107.83ZM32.8652 213.361L2.7371 243.919L3.44919 244.621L33.5773 214.064L32.8652 213.361ZM33.7212 244.27V213.713H32.7212V244.27H33.7212ZM3.09315 244.77H33.2212V243.77H3.09315V244.77Z" fill="black"/>
</svg>
